<svg xmlns="http://www.w3.org/2000/svg" viewBox="0 0 512 512" width="512" height="512">
  <!-- Background -->
  <rect width="512" height="512" rx="110" fill="#3278D7"/>

  <!-- Infinity symbol (Font Awesome, CC Attribution) -->
  <!-- Original viewBox: 640 wide, 320 tall (96 to 416). Center at 320, 256 -->
  <!-- Scale to fit ~360px wide: 360/640 = 0.5625 -->
  <!-- Offset: x = (512 - 640*0.5625)/2 = (512-360)/2 = 76 -->
  <!-- y = (512 - 320*0.5625)/2 - (96*0.5625) = (512-180)/2 - 54 = 166 - 54 = 112 -->
  <g transform="translate(76, 112) scale(0.5625)">
    <path d="M471.1 96C405 96 353.3 137.3 320 174.6 286.7 137.3 235 96 168.9 96 75.8 96 0 167.8 0 256s75.8 160 168.9 160c66.1 0 117.8-41.3 151.1-78.6 33.3 37.3 85 78.6 151.1 78.6 93.1 0 168.9-71.8 168.9-160S564.2 96 471.1 96zM168.9 320c-40.2 0-72.9-28.7-72.9-64s32.7-64 72.9-64c38.2 0 73.4 36.1 94 64-20.4 27.6-55.9 64-94 64zm302.2 0c-38.2 0-73.4-36.1-94-64 20.4-27.6 55.9-64 94-64 40.2 0 72.9 28.7 72.9 64s-32.7 64-72.9 64z" fill="white"/>
  </g>
</svg>
